<?xml version="1.0" standalone="no"?>
<!DOCTYPE svg PUBLIC "-//W3C//DTD SVG 1.1//EN" "http://www.w3.org/Graphics/SVG/1.1/DTD/svg11.dtd" >
<svg>
<metadata>
Created by FontForge 20120731 at Tue Jul  2 04:08:19 2019
 By www-data
Copyright (c) 2019 by starinkbrush - Fenny Wiryani. All rights reserved.
</metadata>
<defs>
<font id="Believeit" horiz-adv-x="195" >
  <font-face 
    font-family="Believe it"
    font-weight="400"
    font-stretch="normal"
    units-per-em="1000"
    panose-1="0 0 0 0 0 0 0 0 0 0"
    ascent="750"
    descent="-250"
    x-height="412"
    cap-height="722"
    bbox="-247.629 -288 804 774.762"
    underline-thickness="50"
    underline-position="-50"
    unicode-range="U+000D-007A"
  />
<missing-glyph 
 />
    <glyph glyph-name=".notdef" 
 />
    <glyph glyph-name="NULL" horiz-adv-x="0" 
 />
    <glyph glyph-name="NULL" horiz-adv-x="0" 
 />
    <glyph glyph-name="nonmarkingreturn" unicode="&#xd;" 
 />
    <glyph glyph-name="space" unicode=" " 
 />
    <glyph glyph-name="d" unicode="d" horiz-adv-x="303" 
d="M193 417q7 42 12 65.5t9 42t7.5 38.5t8.5 53q2 9 3 17.5t4 17.5q6 17 20 23.5t29 0.5q8 -3 10.5 -8.5t3.5 -12.5q1 -12 1 -24.5t-2 -24.5q-10 -78 -22 -144t-24 -128t-23 -124.5t-19 -133.5q5 -2 7 1l4 6q12 14 32.5 38t42.5 49.5t40 49t24 35.5q2 3 6 7t7 6.5t4.5 1
t0.5 -8.5v-10t-2 -10q-11 -24 -34 -58.5t-51 -69.5t-55.5 -66t-46.5 -48q-14 -6 -25 -3t-16 15q-2 6 -4 12.5t-4 13.5q-9 -2 -12 -8t-8 -11q-27 -32 -63 -29q-23 2 -40.5 11t-27.5 29q-10 22 -15 49q-6 34 -4.5 68t9.5 69q7 29 16 56.5t24 54.5q25 47 72 79q24 17 47 21.5
t46 -8.5q2 -1 3.5 -0.5t4.5 0.5zM169 246h-2q4 27 7.5 54t8.5 53q3 13 -1 21.5t-12 15.5q-9 9 -24 1q-26 -16 -36 -39q-8 -15 -15 -30.5t-12 -31.5q-16 -51 -23 -101t-7 -101q0 -8 1 -15.5t4 -14.5q5 -18 18.5 -19.5t28.5 13.5q11 12 20 25t14 28q4 14 7.5 27t6.5 27
q5 22 8.5 43.5t7.5 43.5z" />
    <glyph glyph-name="e" unicode="e" horiz-adv-x="263" 
d="M85 148q-9 -36 1 -70q2 -11 9 -20q13 -12 32 -6t39.5 22.5t42.5 40.5t41.5 49.5t35.5 49t26 38.5q2 5 5 9t9 5q5 -2 4.5 -6.5t-1.5 -8.5q-14 -27 -35.5 -63.5t-48 -73t-56.5 -67t-60.5 -46.5t-59.5 -11.5t-54 39.5q-11 21 -17 45.5t-4 50.5q1 60 15 122q9 36 24 69.5
t40 65.5q10 12 19 19.5t21 18.5q13 11 29 16q21 8 42.5 3t29.5 -22q20 -47 7.5 -100.5t-43.5 -101.5q-17 -22 -42.5 -42t-50.5 -25zM86 185q20 10 34.5 34t24.5 53t15 58t6 49q2 5 1.5 10.5t-6.5 10.5q-9 -9 -16 -19.5t-11 -21.5q-19 -38 -31 -82t-20 -85q0 -1 1 -2.5
t2 -4.5z" />
    <glyph glyph-name="f" unicode="f" horiz-adv-x="208" 
d="M25 172q-9 2 -17 0l-16 -4q-5 -1 -9 -2t-9 -3q-11 -2 -12 5q0 10 5 14q5 5 11 8.5t11 7.5l42 18l3 20q4 26 7 51t8 50q5 21 13 40.5t19 39.5q11 21 32 42q5 5 11.5 9t11.5 8q27 16 50 11t34 -29q17 -41 5 -87q-2 -10 -6.5 -19.5t-8.5 -19.5q-3 -9 -9.5 -14.5t-14.5 -9.5
q-19 -8 -29 6q-5 7 -6 14.5t0 15.5q4 33 20 69q4 8 5.5 15.5t-1.5 14.5l-4 4l-4 4q-11 -6 -17.5 -14.5t-10.5 -19.5q-22 -52 -26 -104l-5 -63q-1 -3 -0.5 -5.5t1.5 -6.5h15q5 0 10 0.5t10 -0.5q10 0 18 -3t10 -12q2 -11 -4 -20t-14 -17q-7 -7 -20 -7q-8 1 -15 0.5t-15 -0.5
q-5 -6 -5.5 -12.5t-1.5 -12.5q-4 -42 -11 -82.5t-16 -82.5q-7 -30 -16 -59.5t-22 -58.5q-18 -42 -49 -79q-11 -12 -24 -21.5t-29 -15.5q-35 -14 -60 -1.5t-30 45.5q-3 24 8 49q6 17 20 27q7 5 14 9t14 1q19 -6 15 -31q-6 5 -10 8.5t-9 8.5q-4 -3 -6.5 -5t-4.5 -4
q-9 -17 -11.5 -34t5.5 -33q6 -13 20.5 -14t28.5 10q22 19 33 42q11 21 19.5 43t14.5 45q13 60 20.5 120t14.5 120z" />
    <glyph glyph-name="g" unicode="g" horiz-adv-x="286" 
d="M199 402l13 20q13 14 29.5 13.5t22.5 -15.5q2 -8 2.5 -17.5t-0.5 -19.5q-3 -24 -8.5 -53t-10.5 -54q-15 -81 -30 -172t-34 -171q-6 -26 -13 -51t-15 -50q-5 -17 -15 -32.5t-21 -29.5t-26 -23.5t-32 -15.5q-36 -8 -61.5 1.5t-39.5 31t-15.5 52t12.5 65.5q17 34 50 55
q10 6 23 9q20 5 33.5 -4.5t15.5 -28.5q1 -27 -19 -52q0 -1 -4 -1v31t-5 20q-4 5 -11.5 4.5t-15 -4t-14.5 -9t-10 -9.5q-15 -23 -17 -51.5t8.5 -48.5t32.5 -24t55 23q3 5 5.5 9.5t4.5 9.5t3.5 11t3.5 12q7 35 14 81.5t14 81.5q0 1 -2 7q-2 -2 -5 -2t-6 -2q-35 -14 -66.5 -6.5
t-45.5 36.5q-5 8 -8.5 18t-5.5 20q-6 33 -2.5 67t9.5 68q5 26 14 56.5t23 55.5q8 14 16.5 26.5t18.5 25.5q25 29 63 43q32 11 57 0zM164 184q7 38 14 73t12 64q1 5 2 9t0 8q0 14 -4.5 25.5t-16.5 19.5q-19 9 -32 -8q-13 -20 -24 -44q-11 -26 -20 -56t-14 -56l-12 -68t-7 -68
l2 -18t3 -17q2 -13 17 -17t29 7q10 6 16.5 14t9.5 20q6 31 13 60.5t12 51.5z" />
    <glyph glyph-name="h" unicode="h" horiz-adv-x="335" 
d="M114 368q7 5 11 9.5t8 7.5q11 7 21.5 14.5t21.5 12.5q23 11 43 5.5t31 -24.5q8 -13 10 -28t0 -31q-1 -14 -2.5 -29t-4.5 -29q-9 -47 -18 -93t-17 -93q-2 -9 -3 -18.5t-2 -18.5q0 -5 1 -9.5t2 -9.5q10 3 24.5 16t31.5 31.5t34.5 41t33.5 44.5t29.5 41.5l22.5 32.5
q2 5 4.5 9t4.5 8q11 4 11 -6q0 -11 -3 -23q-10 -18 -25.5 -44.5t-35 -55t-42 -55.5t-46.5 -46.5t-48.5 -28t-47.5 1.5q-15 5 -18 19q-5 17 -5 33q-1 49 7.5 98t19.5 99q1 5 4 18t6 29t4.5 31.5t0 25.5t-8 12t-18.5 -9q-7 -6 -14 -12.5t-12 -14.5q-18 -23 -30.5 -47
t-17.5 -51q-6 -42 -14 -84.5t-16 -84.5q-6 -22 -15 -49q-9 -22 -26 -23q-18 -3 -25 16q-9 19 -6 41l10 78t13 79q8 41 15 81t15 81l11 64l25 122q4 23 10 45t11 45l7 17q11 23 36 21q22 -3 23 -23q0 -8 -1 -16t-3 -16q-5 -41 -8.5 -69t-7.5 -53t-9 -53t-12 -69
q-1 -2 -0.5 -5.5t-0.5 -8.5z" />
    <glyph glyph-name="i" unicode="i" horiz-adv-x="154" 
d="M56 27q17 8 40 35.5t45.5 61t42 65.5t28.5 50q9 28 17 23q7 -5 5 -11t-4 -13q-5 -20 -21 -51.5t-37 -65.5t-45.5 -64.5t-45.5 -49.5q-9 -12 -23.5 -18t-29 -6.5t-26.5 6t-16 20.5q-8 36 -7.5 80t8 88.5t20 86.5t29.5 74q3 7 6 13.5t7 13.5t10 13q15 13 31 11.5t18 -21.5
q3 -14 0 -28q-4 -22 -8 -43.5t-9 -43.5l-28 -136q-9 -41 -7 -90zM148 527q-6 -32 -21 -53q-14 -18 -30 -19t-25 16q-5 9 -5.5 21.5t3 25.5t10.5 25t16 20q20 18 35.5 11t16.5 -24v-23z" />
    <glyph glyph-name="j" unicode="j" horiz-adv-x="120" 
d="M-139 -170q5 24 7.5 44.5t-2.5 40.5q-4 11 -14.5 12.5t-20.5 -8.5q-28 -24 -34 -56t5 -56t36.5 -32t60.5 16q14 7 25.5 39t20.5 73t16 83t12 69q11 56 20.5 111t20.5 110l21 107q1 5 2 9t3 9q4 11 14 17.5t22 7.5q22 2 27 -23q-1 -7 -1 -13t-2 -13l-28 -157
q-8 -43 -15.5 -85.5t-15.5 -85.5q-4 -20 -6.5 -33t-5.5 -25t-6 -25.5t-7 -32.5q-9 -36 -21 -73t-30.5 -66t-44.5 -46.5t-61 -15.5q-42 0 -68 20.5t-34.5 51t0.5 65t36 62.5q8 9 19 17q30 20 55.5 13t30.5 -39q3 -22 -2.5 -44t-21.5 -42q-3 -4 -7 -6q-2 -1 -2.5 -0.5
t-3.5 0.5zM57 537q2 10 6.5 19.5t10.5 19.5l6 8q17 18 33.5 17t24.5 -21q15 -37 -13 -78q-13 -20 -32.5 -21.5t-30.5 16.5q-9 17 -5 40z" />
    <glyph glyph-name="k" unicode="k" horiz-adv-x="298" 
d="M127 125q8 -20 14 -39t15 -36q4 -7 8 -13t10 -11q16 -10 41 7.5t51.5 51t50 78.5t37.5 90q4 6 11 8q2 -1 5.5 -3t3.5 -4q3 -14 0 -26q-10 -35 -28 -72t-41 -70.5t-49 -60t-52.5 -40.5t-52 -13t-47.5 23q-8 9 -14 20t-9 23q-2 12 -4.5 24t-4.5 25q-2 6 -3 11.5t-7 9.5
q-5 -1 -5.5 -3.5t-1.5 -4.5q-2 -17 -4.5 -33.5t-6.5 -33.5l-4 -16t-5 -15q-8 -15 -21.5 -18.5t-23.5 5.5q-11 11 -11 25q-1 11 -1.5 21.5t1.5 21.5l16 110t18 110q5 30 9 49.5t7.5 36.5t7.5 36.5t9 48.5q8 36 17 71t22 70q5 14 12.5 28.5t16.5 26.5q16 21 36 33.5t46 12.5
q25 -2 36 -18q15 -23 12 -53q-5 -33 -16 -64t-30 -60q-40 -61 -96 -114q-2 -12 -3 -14.5t-1 -3t-1 -3t-3 -15.5q7 -3 9.5 0t4.5 5q9 8 17.5 16.5t18.5 16.5q34 26 67 19.5t46 -41.5q5 -14 4 -27q2 -90 -69 -164q-11 -11 -24 -20t-27 -17q-7 -3 -14 -8zM69 168q10 2 17 4
q27 13 44 31q53 53 67 120q2 6 2.5 12t1.5 11q-1 10 -8.5 14.5t-17.5 -0.5q-6 -2 -11 -5.5t-10 -8.5q-46 -37 -66.5 -81.5t-18.5 -96.5zM119 447l12 15l58 100q8 17 11.5 35.5t4.5 36.5l-5 27q-1 3 -5.5 4t-7.5 -2t-7 -6t-6 -8q-4 -5 -7 -11.5t-5 -12.5q-15 -32 -23.5 -65.5
t-15.5 -66.5q-1 -10 -3 -20.5t-1 -25.5z" />
    <glyph glyph-name="l" unicode="l" horiz-adv-x="200" 
d="M2 237q6 38 11.5 66t11 52.5t12 50t16.5 58.5q11 33 23 64.5t29 62.5q9 17 19 31t23 28q11 13 25 20t30 11q19 4 29 -6t14 -26t3.5 -33.5t-1.5 -28.5q-12 -105 -51 -190t-108 -167q-8 -10 -12.5 -20t-5.5 -21q-4 -33 -8 -65.5t-2 -64.5q1 -8 1.5 -15.5t3.5 -14.5
q5 -15 17.5 -17t26.5 10q22 11 43.5 39.5t39 61.5t31 64.5t20.5 49.5q3 6 8.5 14.5t8.5 14.5q1 3 6 3q2 -1 4 -1.5t2 -2.5q1 -4 1.5 -8t-0.5 -8q-9 -26 -23.5 -63.5t-33.5 -76t-42 -71t-48 -47.5q-15 -15 -33 -20.5t-35 -3.5t-30.5 10t-20.5 20q-7 14 -11 29t-5 32
q-2 27 -1.5 54.5t3.5 56.5zM211 631q-1 0 -1.5 0.5t-1.5 0.5h-1q-6 -6 -8 -10q-15 -25 -27 -50.5t-20 -52.5q-42 -123 -67 -242q38 48 66 105.5t44.5 109t20.5 90t-5 49.5z" />
    <glyph glyph-name="m" unicode="m" horiz-adv-x="465" 
d="M351 346q-17 -14 -26 -28.5t-17 -28.5q-14 -29 -26.5 -58.5t-23.5 -58.5l-36 -106q-5 -11 -9.5 -23t-9.5 -23q-1 -7 -5 -14q-11 -17 -23.5 -19t-23.5 12q-3 4 -5 9.5t-4 11.5q-5 12 -3 26q2 29 3 56t4 56q5 34 11.5 67t12.5 68l4 22t0 25q-4 -4 -6.5 -5.5t-3.5 -3.5
l-23 -43q-17 -39 -30.5 -79.5t-26.5 -80.5l-18 -54t-24 -53l-10 -21q-10 -13 -23 -13.5t-20 12.5q-2 4 -2.5 9.5t-0.5 10.5q0 41 3 83q5 52 15 103t21 102q3 18 9.5 35.5t13.5 34.5q6 15 18 27q10 11 21.5 10.5t17.5 -11.5q9 -11 7 -28q-4 -33 -12 -70q-1 -8 -3 -16.5
t-1 -17.5q8 15 12 25q15 37 42 68q12 14 23 22q21 14 40.5 10.5t27.5 -23.5q12 -25 7 -56l-5 -45q-1 -8 -1.5 -15.5t-0.5 -18.5q5 8 9 14.5t6 12.5q13 26 30 50t37 47l24 23q10 9 22.5 12.5t24 1.5t20.5 -9.5t12 -20.5q6 -22 1 -49l-20 -95q-8 -33 -15.5 -65t-14.5 -64
q-2 -11 -2 -22v-22q0 -10 4 -12.5t13 7.5q17 19 34.5 43.5t34 50.5t30.5 50t25 42q2 6 5.5 11t10.5 9q11 -8 4 -22q-9 -21 -27 -54t-39 -67.5t-42.5 -64t-38.5 -44.5q-29 -24 -55 -4q-33 22 -31 66q1 17 2 33.5t3 33.5q6 41 16 80.5t21 79.5q3 13 5.5 26t0.5 30z" />
    <glyph glyph-name="n" unicode="n" horiz-adv-x="369" 
d="M84 187q13 32 25.5 63t29.5 61q9 16 18.5 31t20.5 30q11 16 32 31q27 21 54 1q19 -14 22 -36q8 -30 2 -59l-24 -137q-5 -26 -9 -52t-9 -52q-1 -16 2 -19.5t15 7.5q44 40 80.5 88t72.5 111q2 3 4.5 6t5.5 6q2 2 6 1.5t6 -2.5q6 -9 1 -23q-9 -16 -23.5 -41t-33.5 -53.5
t-41 -57t-45 -51.5t-46.5 -36.5t-45.5 -12.5q-23 1 -27 21q-2 5 -2.5 10.5t-1.5 10.5q-3 41 5 87t16 91t17 91l7 44q0 5 -1 9.5t-2 11.5q-5 -3 -8.5 -5t-5.5 -5q-8 -13 -16 -25t-15 -25q-20 -36 -34 -73l-28 -74q-14 -34 -25.5 -68t-24.5 -69l-7 -17q-6 -12 -17 -16t-21 4
q-21 14 -22 41q-1 14 -1.5 27t-0.5 27q2 44 8 87.5t15 88.5q5 20 10 39.5t10 39.5q4 15 14 33q8 15 23.5 24t30.5 9q19 0 21 -18q0 -5 -0.5 -10t-1.5 -10q-3 -20 -7 -39t-9 -39q-5 -27 -10.5 -54t-8.5 -53z" />
    <glyph glyph-name="o" unicode="o" horiz-adv-x="315" 
d="M366 277q7 -5 7 -6q3 -4 1 -9q-4 -22 -20.5 -41t-38 -35.5t-44 -30t-38.5 -22.5q-7 -8 -12 -15t-9 -15q-5 -10 -9.5 -18.5t-8.5 -18.5q-9 -20 -23 -37t-30 -33q-19 -17 -41 -22.5t-43 2.5q-25 9 -40 25t-20 42q-7 31 -6 62t8 63q3 17 8 33t11 33q8 23 20.5 43.5
t29.5 38.5q11 13 21 26t17 28q6 16 18 29q11 13 24 20q19 13 37 5q28 -10 40 -35q25 -52 21 -108q-2 -26 -4.5 -53t-5.5 -54q38 16 74 45t56 58zM163 138q4 8 4 9q21 68 24 133q0 18 -1 36t-3 35q-1 10 -4.5 19.5t-8.5 18.5q-2 5 -8 4.5t-9 -5.5q-5 -7 -9 -14t-6 -15
q-13 -48 -15 -94t10 -90q3 -9 7 -16.5t9 -15.5q1 -2 4 -2.5t6 -2.5zM80 216q-10 -24 -15 -50.5t-4.5 -52t7 -49t19.5 -41.5q9 -14 25 -1q15 13 23.5 34.5t11.5 39.5q-27 11 -40.5 31.5t-18.5 47.5z" />
    <glyph glyph-name="p" unicode="p" horiz-adv-x="322" 
d="M116 343q6 1 8 5t6 7q9 8 16.5 16.5t17.5 15.5q23 17 45.5 16.5t39.5 -17.5q15 -16 21.5 -36t6.5 -44q0 -30 -5 -60t-11 -61q-2 -5 -2.5 -9t-1.5 -8q0 -1 1 -1t2 -2q40 17 70 44.5t41 50.5q5 15 9 15t5.5 -8.5t0 -22t-6.5 -24.5q-6 -12 -23 -28.5t-37.5 -32.5t-40 -29.5
t-30.5 -17.5q-15 -8 -21 -25q-5 -12 -12 -23.5t-12 -22.5q-13 -23 -31 -38t-40 -26q-15 -8 -29 -7.5t-25 11.5q-22 22 -8 57q11 24 29 41t40 29l31 15q4 11 8 21t7 21q6 31 11 61t10 61q2 12 1.5 24t-1.5 24q0 5 -1 9.5t-3 9.5q-6 11 -19 5q-9 -5 -17.5 -10.5t-13.5 -13.5
q-6 -7 -11.5 -14t-8.5 -14q-16 -26 -27 -52t-15 -55q-11 -58 -22.5 -116t-22.5 -116q-6 -33 -9.5 -51.5t-7 -34t-7 -34t-9.5 -51.5q-2 -9 -4.5 -17.5t-4.5 -17.5q-5 -19 -21.5 -25t-27.5 8q-12 13 -13 29q0 21 1 42.5t5 43.5l26 151q8 39 14 78t13 78q8 43 18 85.5t19 85.5
q3 11 7 20.5t9 19.5q7 13 19 20q14 11 28 7t16 -21q2 -5 1.5 -11t-0.5 -11zM143 62q-8 2 -14 -0.5t-10 -7.5q-9 -8 -19 -21q-4 -10 3 -15q9 -4 15 4q9 8 14.5 18t10.5 22z" />
    <glyph glyph-name="q" unicode="q" horiz-adv-x="303" 
d="M301 -124l-13 -6q-85 -31 -134 -109l-16 -27q-4 -4 -7.5 -8t-8.5 -8q-7 -5 -14.5 -4t-10.5 8q-2 5 -3 10.5t0 11.5q2 22 4.5 43.5t5.5 43.5l25 146q2 5 3 11t-1 14l-19 -13q-38 -22 -73 -7q-15 6 -26.5 16.5t-16.5 24.5q-11 20 -15 41.5t-1 45.5q8 91 42 179q18 40 48 74
q17 21 38.5 33t45.5 18q27 6 45 -6l16 -10q4 4 6.5 7.5t6.5 6.5q14 12 29.5 10t20.5 -19q2 -10 2.5 -20.5t-1.5 -21.5q-2 -17 -5.5 -33.5t-7.5 -33.5q-10 -54 -20 -101.5t-19.5 -94t-20 -94t-20.5 -101.5l-6 -30t-5 -31q5 -4 8.5 -0.5t7.5 5.5q20 17 45.5 26t49.5 11
q4 0 7 -1t7 -1zM180 229h-1l24 122q4 20 -12 27q-8 3 -17 1t-17 -10l-12 -14q-14 -19 -24 -39t-17 -41q-14 -47 -24 -93.5t-19 -94.5q-3 -14 -1 -31q4 -16 10 -25q6 -13 25 -6q20 7 35 27q9 13 15.5 26t9.5 27q5 31 12 62t13 62z" />
    <glyph glyph-name="r" unicode="r" horiz-adv-x="272" 
d="M107 303l44 57q8 9 17 16.5t19 13.5q27 16 48.5 10t29.5 -32q4 -12 3 -26.5t-6 -29t-13.5 -28t-19.5 -22.5q-13 -10 -26 -11q-28 -3 -28 23t19 44l16 15l6.5 6.5t5.5 7.5q5 10 -2 16q-6 4 -13 1q-11 -2 -19 -8.5t-15 -14.5q-19 -20 -33.5 -42.5t-27.5 -45.5
q-11 -20 -18 -40t-10 -42q-5 -34 -11 -67t-13 -67q-3 -18 -13 -36q-8 -16 -24 -20q-13 -2 -21 0.5t-12 15.5q-2 6 -2.5 12.5t-0.5 12.5q1 22 6 47q10 69 21 138.5t23 139.5q1 8 3 15l4 14q5 15 20 24.5t29 7.5q16 -2 17 -13q1 -8 2 -15.5t0 -15.5q-1 -11 -2.5 -22.5
t-2.5 -23.5q-1 -4 0 -15z" />
    <glyph glyph-name="s" unicode="s" horiz-adv-x="242" 
d="M174 258q-9 2 -17 13t-10 18q-2 5 0 10.5t4 11.5q11 20 15.5 34.5t0.5 34.5q-3 12 -12 14.5t-20 -4.5q-17 -10 -22 -30q-6 -25 -3 -45.5t10.5 -39t18.5 -35t20 -34.5q15 -27 18.5 -58.5t-0.5 -64.5q-2 -23 -12.5 -45.5t-30.5 -40.5q-13 -13 -29.5 -20.5t-33.5 -9
t-32.5 2.5t-26.5 15t-16 24.5t-9 29.5q-3 17 0 34t9 35q2 11 9 23.5t17 21.5q13 10 25 11q16 1 23 -9q9 -16 -5 -43q-5 -1 -4.5 2t0.5 6v9.5t-2 9.5q0 3 -3.5 5.5t-6.5 2.5q-4 -1 -12 -9q-2 -2 -3 -5t-2 -5q-5 -23 -3.5 -44.5t12.5 -40.5q10 -18 26 -23q12 -5 23 0.5
t15 19.5q5 25 5 46q0 35 -16 69l-13 26t-12 26q-10 20 -15 41t-4 45q1 22 6.5 43.5t18.5 41.5q17 28 41.5 40t51.5 6q17 -3 28.5 -13.5t13.5 -24.5q9 -51 -15 -103q-3 -7 -7.5 -13.5t-13.5 -11.5z" />
    <glyph glyph-name="t" unicode="t" horiz-adv-x="162" 
d="M69 25q13 0 33 18.5t41 47t41.5 64t34.5 70.5q3 8 6.5 15.5t8.5 12.5q11 1 9 -6q0 -9 -0.5 -18t-3.5 -17q-11 -27 -33 -69t-50 -81t-59.5 -65.5t-62.5 -22.5q-17 3 -28.5 14.5t-13.5 27.5v15.5t1 15.5q3 35 7 70t12 70q4 20 11 53.5t13.5 69t12.5 68t9 52.5l-20 5
q-1 9 -1 13.5t3 8.5t9 7t17 9l4 16l31 144q2 10 5 20t7 20q7 18 27 16q14 -3 20 -13q11 -16 6 -41l-27 -153q10 -3 23.5 -2.5t22.5 2.5l64 7q10 1 13 -4.5t-1 -13.5q-8 -14 -19 -23t-28 -10q-11 -1 -22.5 -2t-22.5 -3q-7 -1 -19.5 -1t-20.5 -1q-14 -77 -27.5 -165.5
t-27.5 -165.5l-8 -55q-1 -5 0.5 -10t2.5 -10z" />
    <glyph glyph-name="u" unicode="u" horiz-adv-x="315" 
d="M148 38q-8 -8 -13 -14.5t-11 -11.5q-30 -28 -68 -25q-20 2 -31.5 14t-17.5 29q-4 11 -5 23t-1 24q1 66 11 132.5t24 133.5q3 12 6 23.5t8 22.5q6 17 23 18h15q17 0 22 -15q1 -7 1.5 -14t0.5 -14q-3 -35 -9 -69l-29 -175l-5 -52l2 -14q4 -21 26 -8q16 9 28 21.5t22 26.5
q4 5 5.5 11t2.5 12q6 37 10.5 73.5t11.5 74.5q11 58 24 113l2 8q6 17 13 22.5t25 6.5q11 0 15.5 -3t6.5 -14q1 -14 0.5 -27t-2.5 -27q-3 -27 -8 -54t-10 -53l-23 -131q-2 -11 -3 -20.5t-1 -20.5q-1 -3 -0.5 -7t0.5 -10q5 5 8 7t5 5q10 13 30 38.5t41.5 54.5t39.5 56t25 42
q2 6 5 12t12 9q3 -5 3 -9q-2 -16 -6 -29q-9 -22 -30.5 -58t-47 -73t-50 -67t-40.5 -40q-17 -10 -31 -6t-22 18q-3 6 -5 13t-5 17z" />
    <glyph glyph-name="v" unicode="v" horiz-adv-x="269" 
d="M178 189q-27 17 -33.5 42t-4.5 55q3 26 10 50.5t18 49.5q7 16 20 32q6 9 17 15q14 9 26 6.5t17 -16.5q8 -21 6 -44q1 -16 -1.5 -31.5t-5.5 -31.5q-3 -22 -7.5 -43.5t-9.5 -43.5q0 -1 0.5 -1.5t0.5 -1.5q17 0 35 7t34 17.5t29 21.5t19 18q2 -4 3.5 -6t0.5 -4
q-7 -20 -23 -37t-35.5 -29.5t-40 -19.5t-36.5 -7q-4 -9 -7 -18.5t-6 -19.5q-10 -26 -22 -52t-26 -51q-16 -24 -39 -46q-20 -16 -37.5 -15t-31.5 15q-8 9 -13 19.5t-8 21.5q-5 23 -8 46t-2 46q1 47 5 92.5t10 92.5q2 20 6.5 39t10.5 39q5 14 11.5 19.5t16.5 7.5q14 2 24 -5
t12 -19q0 -7 0.5 -14t-1.5 -14q-9 -56 -13.5 -110.5t-6.5 -109.5q-2 -28 -2 -56t5 -55l2 -8t2 -9q7 4 8 5q25 38 41 78.5t30 82.5zM188 233q13 41 20.5 81.5t13.5 72.5v13t-5 11q-9 -7 -11.5 -15.5t-5.5 -16.5q-6 -11 -13 -34.5t-10.5 -47.5t-2 -43t13.5 -21z" />
    <glyph glyph-name="w" unicode="w" horiz-adv-x="408" 
d="M138 37q-13 -14 -23.5 -24.5t-24.5 -17.5q-38 -14 -60 7q-10 9 -15 20.5t-7 25.5q-10 51 -4 107q5 53 10 104.5t16 104.5q1 8 3 16l4 16q8 23 29 24q13 2 25 -3.5t15 -16.5l1 -14q-2 -10 -2 -19t-2 -19q-10 -67 -24 -139q-7 -39 -8 -78t0 -77q2 -12 4 -19q6 -20 24 -6
q17 13 23.5 29t10.5 36l30 186l11 61q2 8 3.5 17t3.5 17q2 7 7.5 12.5t13 8t15 2t13.5 -4.5q15 -10 17 -30q1 -15 -2 -35q-2 -20 -5.5 -40.5t-8.5 -40.5q-7 -35 -11.5 -70.5t-7.5 -71.5q-2 -16 -2 -31.5v-31.5q0 -9 3 -16q2 -5 8.5 -5.5t11.5 4.5q3 4 6 7.5t5 7.5
q5 11 10 21t10 21q10 27 19 54t18 53q-33 49 -30.5 101.5t32.5 109.5q4 7 8.5 13.5t10.5 12.5q14 16 30.5 14t21.5 -21q2 -11 3 -22.5t-1 -22.5q-5 -27 -11 -54.5t-12 -55.5l-12 -45q19 -4 39 2.5t38 19t33 28t25 30.5q2 -4 3.5 -6.5t-0.5 -4.5q-6 -21 -23 -41t-38.5 -34.5
t-44.5 -22t-41 -4.5l-27 -75q-5 -14 -10.5 -28t-11.5 -28q-5 -11 -11.5 -22t-13.5 -21q-10 -13 -24 -21t-28 -10t-27.5 1.5t-21.5 14.5q-5 5 -7.5 11t-5.5 12zM342 406q-11 -11 -14.5 -23t-7.5 -24q-8 -28 -9 -55t3 -56q11 19 18.5 50.5t12.5 73.5q2 8 2 17t-5 17z" />
    <glyph glyph-name="x" unicode="x" horiz-adv-x="363" 
d="M146 64l-22 -34q-15 -21 -33 -34q-26 -17 -51 -14.5t-39 25.5q-15 26 -12 59q4 34 23 68q4 6 9 11t14 9q0 -3 0.5 -5.5t0.5 -4.5q-1 -10 -3 -19.5t-3 -18.5q-1 -11 -2 -21.5t1 -21.5q1 -7 4 -13l6 -12q5 -8 14.5 -9t19.5 6q7 5 12.5 10.5t10.5 11.5q10 15 18 33
q8 22 15.5 46t6.5 45q0 30 1 59.5t-0.5 56.5t-7 51t-18.5 44q-3 5 -5 6.5t-8 -2.5q-15 -10 -23 -21q-6 -5 -10 -11.5t-9 -14.5q-4 9 -4 13q0 9 5.5 19.5t14.5 20t19.5 16.5t20.5 10q16 4 33 -1t28 -15q11 -9 16 -21t10 -26l9 -36q16 29 32 52t46 37q9 4 20 7q31 6 43 -20
q9 -20 -1 -41.5t-37 -35.5v11q2 8 5 14.5t4 14.5q3 7 -1 16q-2 5 -8 7.5t-11 -1.5q-7 -5 -14 -10.5t-12 -12.5q-21 -27 -35.5 -56t-23.5 -59q-1 -5 -1.5 -9t-0.5 -9q1 -20 1 -57t2.5 -72.5t8.5 -61.5t21 -25q25 9 51 37.5t49 65t42.5 74.5t32.5 65q2 5 7 5q8 0 6 -7
q-5 -30 -20.5 -68t-38 -75.5t-50 -69.5t-56 -51t-56.5 -19.5t-51 25.5q-6 11 -9.5 32t-6.5 32z" />
    <glyph glyph-name="y" unicode="y" horiz-adv-x="300" 
d="M146 27q-7 1 -9.5 -3.5t-6.5 -7.5q-11 -8 -20 -17t-20 -16q-24 -15 -46.5 -13t-37.5 20q-14 17 -16 44q2 23 3.5 44.5t3.5 44.5q4 42 11.5 82.5t18.5 82.5q6 19 10.5 37t9.5 36q2 5 5 11t7 11q14 17 34 16q19 -2 22 -19q2 -7 2 -13.5v-14.5l-10 -61q-7 -33 -14.5 -66.5
t-13.5 -66.5q-6 -30 -10 -60t-9 -59q-1 -7 0 -13t3 -13q2 -15 19 -6l8 6q36 31 63 69q3 4 4 9.5t2 10.5q6 40 11 79.5t10 79.5q3 29 8 58t13 58q2 2 2 4.5t1 4.5q3 17 15 23.5t30 2.5q12 -3 15 -12q2 -5 3 -9.5t1 -9.5q-1 -11 -1.5 -20.5t-2.5 -20.5q-8 -57 -15.5 -113
t-16.5 -113l-24 -139q-10 -57 -32 -116q-14 -32 -39 -65q-18 -28 -49 -46q-25 -15 -48.5 -15.5t-43.5 11.5q-33 16 -39 48q-15 65 37 119q12 14 28 21.5t34 9.5q21 2 32 -10t7 -31q-5 -22 -19 -37q-8 2 -6.5 6.5t1.5 8.5q3 14 -5 27q-4 5 -11.5 5.5t-13.5 -4.5
q-21 -12 -30.5 -30t-10.5 -36.5t5.5 -35t18 -25t27 -7t31.5 18.5q15 17 23.5 37t13.5 40q5 12 7.5 24.5t4.5 24.5q5 24 7.5 48t6.5 48q2 9 1 13z" />
    <glyph glyph-name="z" unicode="z" horiz-adv-x="406" 
d="M333 128q15 7 23 0q2 -3 4.5 -7t3.5 -9q1 -11 -2 -24q-11 -38 -36 -64t-61 -43q-21 -11 -40 -9.5t-36 11.5q-13 8 -23.5 17t-21.5 17q-6 5 -12 11t-15 10l-26 -21q-11 -6 -20.5 -13t-20.5 -12q-29 -13 -44.5 -0.5t-10.5 41.5q4 18 19.5 35t35.5 25q6 2 12.5 3t12.5 2
q21 3 36 23q31 33 57.5 64t51 63t49 64.5t51.5 68.5q0 5 -3.5 5.5t-7.5 2.5q-22 5 -44.5 10.5t-47.5 8.5q-16 3 -35 -3q-21 -7 -35 -25t-16 -38q-1 -14 6 -23t19 -9q19 -1 27 19q2 7 1 8l-2 14q5 5 8.5 3.5t5.5 -3.5q14 -17 1 -39q-13 -18 -33 -23.5t-36 4.5q-11 5 -16 14.5
t-7 20.5q-5 48 34 84q20 18 42.5 26.5t48.5 10.5q31 3 60.5 -1t58.5 -11q15 -5 31.5 -8.5t34.5 -2.5q2 1 2.5 0t3.5 -3q-1 -2 -2 -5.5t-3 -5.5q-5 -7 -9.5 -13t-9.5 -11q-31 -39 -56.5 -74t-50.5 -69t-51.5 -69t-59.5 -73q-4 -4 -7.5 -9t-8.5 -10l10 -11q17 -11 32.5 -20
t30.5 -20q8 -2 13 -4q27 -9 48 12q19 19 29.5 40t6.5 47zM22 29q8 6 12.5 9t7 6t5 6.5t5.5 9.5q-12 -3 -19.5 -9.5t-10.5 -21.5z" />
    <glyph glyph-name="B" unicode="B" horiz-adv-x="560" 
d="M481 639q-21 -11 -40.5 -22.5t-39.5 -20.5q-17 -9 -34 -16t-34 -13q-36 -14 -72.5 -20.5t-72.5 -3.5q-10 2 -20.5 4.5t-19.5 4.5q-20 7 -29 21.5t-9 34.5q-2 29 9.5 53.5t30.5 47.5q4 5 8.5 9t10.5 4l66 5q1 0 2 -1t3 -2q1 -6 -3.5 -10.5t-7.5 -9.5q-16 -17 -26 -36.5
t-16 -40.5l-4 -12t-1 -12q-2 -34 31 -32q12 0 24 1.5t23 3.5q41 8 79.5 24t74.5 39q31 16 56 33q5 4 11.5 7t11.5 7q33 16 59 -4q14 -11 22 -32q13 -45 9 -94q-8 -83 -44.5 -159t-113.5 -133q0 -5 2.5 -5h4.5q36 -9 54 -27t21.5 -41.5t-4.5 -51t-23.5 -54t-37 -50
t-43.5 -40.5q-48 -40 -106 -60.5t-115 -26.5q-34 -3 -62 5l-14 4t-14 7q-19 14 -22 36t10 45q18 35 52 55q11 8 22.5 14.5t23.5 12.5q0 2 1 4.5t1 4.5l20 128q6 42 12.5 84.5t17.5 84.5l14 74q3 18 21 29l55 31q3 2 6.5 1.5t8.5 -0.5q-2 -38 -10 -74.5t-13 -73.5
q-6 -38 -13 -75.5t-14 -75.5q3 1 6.5 1t5.5 2l19 10q36 23 66.5 51t51.5 66q16 29 31.5 59.5t26.5 62.5q7 21 12 43t6 45q-2 20 -6.5 37.5t-18.5 32.5zM255 86l-4 -16l-10 -58q-1 -5 -1.5 -10.5t-2.5 -10.5q-3 -8 -9 -12q-19 -14 -44 -7q-10 4 -13 11.5t-2 18.5l3 39
q-1 4 -1 6.5t-5 4.5q-15 -7 -29 -16.5t-25 -22.5q-19 -20 -15 -40.5t27 -28.5l10 -3q39 -6 79 3q53 13 97 41.5t80 71.5q29 35 34 79q5 30 -6.5 43.5t-32.5 18.5q-53 12 -111 -14q-9 -23 -11 -40t0 -28q28 -2 44 -3t24.5 -2.5t12 -4.5t8.5 -8q-12 -4 -24 -3.5t-23 -0.5
q-11 -2 -23.5 -4t-26.5 -4z" />
    <glyph glyph-name="C" unicode="C" horiz-adv-x="502" 
d="M472 428l2 -4q-2 -28 -13 -54q-5 -11 -15 -15q-16 -8 -31.5 -12.5t-32.5 -4.5q-32 0 -50 21t-19 43q0 16 4 31t11 31q8 15 17 29t21 27q26 27 55 48.5t64 35.5l8 4q-4 20 -18 38t-33 26q-45 20 -92 -6q-27 -15 -48.5 -33.5t-39.5 -41.5q-38 -46 -59 -94.5t-35 -102.5
q-10 -38 -14.5 -82.5t-1.5 -82.5q0 -28 7 -61t20.5 -63t33 -52.5t45.5 -29.5t58 6t70 53q8 10 16.5 21t17.5 22q3 5 6.5 9.5t8.5 8.5q2 3 6 1.5t4 -4.5q0 -7 -2 -10q-22 -54 -61 -93t-99 -57q-88 -27 -148 31q-23 22 -38 49t-25 58q-15 50 -17 109.5t8 114.5q12 75 44.5 145
t88.5 133q44 49 101 83q20 11 40.5 19t43.5 11q30 4 55 -4t45 -25q19 -15 30 -35.5t16 -44.5q2 -12 0 -17.5t-17 -13.5q-23 -14 -44 -30t-40 -36q-27 -30 -38 -61q-5 -15 -7 -33q0 -20 21 -21q17 -2 30.5 3t28.5 10z" />
    <glyph glyph-name="c" unicode="c" horiz-adv-x="245" 
d="M180 409q-11 -3 -21.5 -14.5t-19.5 -26t-15.5 -29t-9.5 -23.5q-9 -27 -19 -58.5t-17.5 -64.5t-11.5 -65t-3 -59q2 -17 6 -32q9 -21 33 -14q35 16 69 45t63 62t50.5 65t31.5 55q5 1 5.5 -1.5t0.5 -5.5q-3 -25 -22.5 -59.5t-47 -69t-58 -64.5t-55.5 -46
q-45 -27 -82.5 -22.5t-53.5 38.5q-8 17 -11 36q-4 30 -2 64t9 69t18 69t26 64q11 23 25.5 43t34.5 37q21 18 45 25t44.5 2.5t33 -20.5t10.5 -44q1 -26 -4.5 -51t-19.5 -49q-8 -16 -25 -33q-10 -11 -21 -9t-14 14q-2 16 1 28q10 30 24 60q2 4 5.5 14.5t5.5 23t1 25t-9 21.5z
" />
    <glyph glyph-name="D" unicode="D" horiz-adv-x="577" 
d="M453 645q-32 -21 -71.5 -45t-80 -42.5t-78.5 -27.5t-68 -1q-25 4 -33.5 25t-3.5 49q5 32 20.5 60t35.5 54q15 21 32 32q11 7 18 4q12 -4 30.5 -8t25.5 -14q-2 -8 -6 -12t-8 -9q-33 -32 -57 -69q-8 -13 -12.5 -22.5t-9.5 -23.5q-2 -6 -3 -12.5t3 -14.5q8 -3 18 -2.5
t20 1.5q9 2 16.5 3.5t15.5 4.5q18 6 34.5 13t39.5 20.5t57.5 36t87.5 59.5q11 8 18.5 9t15.5 -9q7 -9 15 -21q23 -51 35 -108.5t8 -120.5q-5 -121 -48.5 -230.5t-128.5 -203.5q-25 -25 -53.5 -42.5t-57.5 -28t-56.5 -13.5t-48.5 2q-26 4 -48.5 14.5t-33.5 34.5
q-8 19 -6.5 38.5t14.5 41.5q23 36 62 61q13 6 27 15l3 15q10 54 19.5 108.5t18.5 109.5q2 20 3.5 38.5t3.5 37.5l2 25q0 20 20 30q11 5 26.5 12t26.5 12q4 2 7 2q5 -2 5 -5v-7q-4 -27 -6.5 -53.5t-7.5 -52.5q-8 -46 -17 -92t-18 -93q-3 -17 -7 -34t-8 -33q5 -7 11 -7t11 -1
q24 -1 43 -14l9 -10q-11 -2 -21 -1.5t-19.5 2t-18.5 2t-19 -2.5q-5 -11 -8.5 -22.5t-5.5 -22.5l-14 -59q-3 -12 -8 -15.5t-16 -3.5l-21 -1q-12 5 -11 19l8 61l2 17q-7 2 -11.5 -1t-9.5 -7q-17 -13 -28.5 -29.5t-13.5 -37.5q4 -29 25 -39.5t48 -10t54.5 10.5t45.5 23
q43 36 77 80.5t54 98.5q43 115 54.5 227.5t-25.5 225.5z" />
    <glyph glyph-name="E" unicode="E" horiz-adv-x="397" 
d="M493 617q2 -2 4 -3.5t3 -3.5q4 -8 7.5 -15.5t5.5 -15.5q4 -12 -7 -22q-41 -33 -86 -26q-27 6 -41 29q-12 23 -11 49q2 15 4.5 30.5t5.5 30.5l2 15q2 10 -8 10q-12 1 -23 0q-43 -11 -75 -44q-28 -32 -49 -66.5t-34 -72.5q-23 -66 -23 -128q0 -57 33 -99q4 -5 9 -8.5
t10 -8.5q13 6 23 14q14 8 29.5 15t31.5 12q5 2 9.5 2h9.5q4 -1 4.5 -5t-2.5 -6q-3 -4 -7 -6.5t-9 -4.5q-74 -42 -109.5 -101.5t-42.5 -131.5q-2 -13 0 -25.5t10 -23.5q8 -14 19.5 -18t28.5 -6q24 2 41.5 15t31 31t23 38.5t15.5 38.5q3 6 5 12.5t6 11.5q11 1 9 -6
q-1 -9 -1 -18t-3 -18q-11 -41 -34 -75.5t-61 -61.5q-40 -28 -74 -30.5t-65 17.5q-34 18 -40 57q-9 38 -1 74.5t30 73.5q12 20 26.5 37t30.5 34q5 8 12 13q0 7 -4 9.5t-7 4.5q-73 44 -76 128q-12 175 145 305q21 17 44.5 29.5t50.5 17.5q17 5 34 7t33 -3q5 -1 8 -3t7 -3
l-3 -60v-21q2 -20 16.5 -29t37.5 -4q9 2 18.5 5t22.5 7z" />
    <glyph glyph-name="F" unicode="F" horiz-adv-x="485" 
d="M210 -66q-5 1 -8.5 0.5t-7.5 0.5q-12 3 -18 5t-8.5 5.5t-2.5 9.5t1 18q3 33 8 66.5t10 66.5q6 38 13 82.5t15 82.5q0 2 0.5 4t-0.5 6l-13 -3q-13 -5 -25 -9.5t-24 -9.5q-5 -2 -9.5 -3t-9.5 -2q-11 -3 -13 5q-6 8 4 14q10 7 24 15q23 11 50 22q11 7 28 13l7 37l33 133
q4 23 28 36q10 6 20 10t21 6q20 4 20 -16q0 -5 -1.5 -10t-3.5 -10l-37 -138v-6t-1 -8l23 6q28 8 55.5 13.5t56.5 7.5q8 1 17 0q16 -2 13 -18q-3 -26 -23 -44l-76 -5q-20 -2 -39 -4.5t-40 -8.5q-1 -4 -2.5 -7.5t-2.5 -7.5q-8 -27 -12 -44.5t-10 -43.5q-3 -13 -7 -31
t-7.5 -37.5t-7 -37.5t-6.5 -31l-27 -117zM718 729q0 -21 -11 -46t-23 -44q-5 0 -8 -1t-7 0q-93 10 -178.5 -9t-149.5 -50q-15 -9 -38.5 -20t-50 -20.5t-53.5 -15t-48 -3t-34 14.5t-11 39q0 9 2.5 18.5t6.5 19.5q35 71 105 110q10 5 19.5 8t19.5 1l38 -9q5 -2 4.5 -6t-5.5 -8
q-4 -4 -7.5 -6.5t-8.5 -5.5q-24 -18 -47 -34t-43 -39q-5 -6 -10.5 -12.5t-10.5 -14.5q-7 -11 -10 -21q-3 -15 3.5 -20.5t17.5 -5t25 5t27 10.5t23.5 11.5t14.5 7.5q36 19 79.5 41t84.5 42q27 13 59 24t65 19.5t65.5 14.5t61.5 9q8 1 16.5 0.5t16.5 -5.5z" />
    <glyph glyph-name="G" unicode="G" horiz-adv-x="506" 
d="M493 318q-2 -5 -2 -9t-1 -8q-5 -14 -10.5 -27.5t-11.5 -27.5q-11 -25 -22.5 -58t-22.5 -68.5t-19.5 -69t-13.5 -58.5q-6 -25 -9 -52q-5 -29 -6 -56q-15 -5 -34.5 -3t-30.5 8q-11 7 -15.5 17.5t-4.5 23.5q0 11 0.5 23t3.5 24q2 4 3.5 8.5t-3.5 8.5q-42 -18 -81.5 -21
t-70.5 24q-32 24 -51 56.5t-29 70.5q-18 83 -5 167q7 47 21.5 101t33.5 99q53 122 165 197q40 26 80 37t82 5q18 -3 28.5 -11t17.5 -22q-14 -21 -25.5 -42.5t-21.5 -44.5q-13 -28 -16 -53q-2 -15 4 -26q9 -17 28 -10q7 2 13.5 5.5t11.5 6.5l19 10q2 -5 3 -10t1 -10l2 -30
q3 -14 -9 -23q-8 -5 -15.5 -10.5t-15.5 -10.5q-16 -8 -31.5 -8.5t-28 5t-21.5 15.5t-12 25q-5 27 -0.5 53t17 51.5t31.5 50.5t42 49q-4 4 -9 5q-10 3 -20.5 2t-21.5 -4q-43 -12 -79 -42q-32 -27 -57 -58t-44 -67q-27 -57 -48.5 -123t-32.5 -125q-2 -21 -4.5 -51t-1.5 -62.5
t6 -63t16.5 -52.5t32 -32t51.5 0q7 2 13 4t13 4q16 6 26.5 11.5t16.5 21.5q5 16 14 40t19.5 49t22 48.5t21.5 37.5q3 4 8 14q-9 0 -12 -1q-8 -2 -21 -7t-26.5 -11t-26 -12t-19.5 -10q-14 -8 -24.5 -18t-16.5 -24q0 -3 -4 -8q-2 2 -3 2.5t-2 2.5q-4 16 2 30t18 27q8 9 18 16
t21 12l72 31l96 36q4 2 8 2.5t10 2.5z" />
    <glyph glyph-name="H" unicode="H" horiz-adv-x="599" 
d="M282 281q15 4 29 8t28 7q15 4 29 6.5t28 5.5q15 3 28.5 3.5t28.5 5.5q5 15 6 28q8 37 17 81.5t16 81.5q6 32 9.5 65t8.5 65q1 3 0.5 6t1.5 5q4 9 8 12q23 11 44 22t44 19q3 1 9 1q5 -5 4 -10t-3 -10q-11 -56 -21.5 -111.5t-21.5 -111.5l-43 -207q-6 -28 -12.5 -62.5
t-13.5 -70.5t-13 -70.5t-12 -62.5l-11 -49q-6 -23 -33 -25q-25 -1 -37 11t-9 35l15 84l36 220v9q-5 3 -10.5 2.5t-10.5 -1.5q-36 -5 -72 -14t-71 -23l-9 -5l-10 -55q-4 -20 -9 -45.5t-9.5 -52t-9 -52t-8.5 -45.5q-2 -7 -3.5 -13.5t-4.5 -13.5q-3 -15 -21 -16q-5 -1 -9.5 -1
h-9.5q-14 2 -18.5 7t-4.5 18q0 5 0.5 10.5t1.5 10.5q4 35 10 75.5t13 82.5t14.5 82.5t13.5 76.5q8 42 15 83.5t14 83.5q4 22 6 44t6 45q-5 -2 -8.5 -2t-6.5 -2l-41 -9q-11 -2 -21.5 -1t-20.5 4q-20 6 -29.5 19t-7.5 32q8 77 79 129l7 4q27 17 46 0q6 -5 13 -9.5t12 -13.5
l-23 -17q-41 -31 -72 -74q-10 -16 -11 -31q-3 -10 9 -13q5 -1 10.5 -1h10.5q35 3 64 19q11 5 21.5 11t21.5 11q7 4 14.5 7t15.5 7q2 -3 4.5 -5.5t1.5 -5.5q0 -9 -0.5 -18.5t-2.5 -19.5q-4 -23 -8.5 -45t-9.5 -45q-4 -29 -10 -65.5t-11 -65.5q-2 -15 -5 -29.5t-5 -29.5
q-1 -5 -1 -16z" />
    <glyph glyph-name="I" unicode="I" horiz-adv-x="362" 
d="M174 -53q-5 5 -6 10t-1 10q4 75 15 147t25.5 143t32 142t34.5 145l28 103q-5 2 -7 -1t-4 -5q-34 -35 -77 -63q-14 -9 -27.5 -14.5t-29.5 -5.5q-41 1 -47 37q-1 5 -0.5 10t-0.5 10q5 19 11 37t17 36q10 19 31 22q8 1 17 1.5t17 0.5q4 -4 0 -13q-5 -13 -9.5 -25.5
t-9.5 -26.5q-8 -21 -11 -40q-6 -11 2 -14q10 -6 20 1q5 4 10.5 6.5t10.5 7.5q21 16 41 34t38 38l30 31q10 9 15.5 11t16.5 -3l35 -22q7 -5 7.5 -12.5t-1.5 -15.5q-8 -26 -15.5 -51t-14.5 -51q-5 -24 -10.5 -47t-12.5 -46q-16 -62 -29 -119.5t-23.5 -113t-19.5 -110.5
t-18 -112q0 -13 -11 -21q-11 -10 -25.5 -22t-27.5 -22q-3 -2 -7 -3.5t-9 -3.5z" />
    <glyph glyph-name="J" unicode="J" horiz-adv-x="423" 
d="M363 613l-12 -9l-28 -30t-29 -30q-11 -10 -21 -20t-22 -18q-18 -15 -39 -24q-29 -12 -58.5 -4.5t-40.5 40.5q-6 18 -6.5 37.5t4.5 39.5q10 42 33 83q4 8 8.5 14.5t9.5 12.5q6 8 17 8l28 -4t26 -7q4 -7 1.5 -11.5t-5.5 -9.5q-13 -27 -22 -53.5t-17 -53.5q-5 -17 -6 -33
q-2 -11 0 -20q5 -21 26 -12q8 4 16 9.5t16 10.5q10 8 18.5 16t16.5 16q21 22 40.5 43.5t39.5 44.5q1 3 7 9q9 11 15 12.5t16 -3.5l33 -13q17 -6 13 -24q-13 -65 -23.5 -129.5t-18.5 -129.5q-23 -183 -63 -322q-7 -27 -18.5 -56.5t-26.5 -58t-33 -54t-37 -44.5
q-35 -30 -79 -41q-29 -7 -48 12q-4 4 -6.5 7.5t-4.5 7.5q-12 28 -18 62t-3 68.5t16 67.5t38 60q10 12 23.5 22t27.5 17q11 5 20.5 6.5t19.5 -2.5q9 -3 15.5 -9t8.5 -16q4 -22 -3 -50q-7 2 -7 4q-2 5 -3.5 11t-3.5 12t-4.5 11.5t-10.5 7.5q-33 -10 -50.5 -42t-24 -70
t-3.5 -74.5t12 -54.5q6 -12 17.5 -8.5t19.5 11.5q40 52 61 111q11 29 20.5 57t18.5 57q13 56 21.5 109.5t16 106t15.5 105t20 107.5q5 25 9.5 50t10.5 54z" />
    <glyph glyph-name="K" unicode="K" horiz-adv-x="502" 
d="M286 286q4 4 7.5 7t7.5 8l46 56q57 72 97.5 148t64.5 158q5 15 18 22q15 7 29.5 12t30.5 7q13 0 12 -12q-4 -11 -7 -21.5t-7 -20.5q-22 -47 -45.5 -92t-51.5 -90q-57 -88 -134 -170q-10 -11 -22.5 -21t-23.5 -21l-15 -13q8 -1 13.5 -2t11.5 -2q40 -9 69.5 -31t41.5 -59
q12 -33 10 -73q-1 -22 -2 -43.5t-3 -43.5q-1 -20 -2.5 -39.5t-1.5 -37.5t2 -34t9 -29q4 -10 12 -15.5t18 -10.5q19 -9 39 3q5 3 9.5 5.5t9.5 6.5q3 -5 1 -8t-4 -5q-14 -14 -30 -19.5t-33 -6.5q-15 1 -27 7q-33 11 -51 40q-23 35 -23 77q-1 21 -0.5 42t1.5 42q0 14 0.5 27
t-0.5 27q0 33 -9.5 62.5t-30.5 54.5q-7 5 -13 10.5t-16 8.5q-6 2 -12.5 3.5t-14.5 -1.5q-5 -6 -6 -13t-1 -13q-6 -38 -11 -77t-10 -77q-3 -16 -5.5 -31.5t-3.5 -31.5l-3 -9q-3 -12 -7.5 -15.5t-18.5 -5.5q-11 -1 -22 0t-21 5q-14 5 -11 18q0 11 3 23q6 45 12 89t14 89
q0 5 1.5 11t-0.5 11l-26 -6q-5 0 -6 3.5t1 6.5q3 3 7 6.5t9 6.5q9 6 14 8.5t7.5 6t3 9t2.5 16.5q5 40 14 79l18 78l25 111q2 11 5 21.5t6 21.5v5t1 8l-20 -14q-16 -9 -31 -15t-32 -8q-21 -5 -36 3q-32 10 -32 44q-1 15 3 30t11 30q20 38 54 70q16 16 27.5 17.5t26.5 -10.5
q5 -3 9 -8t9 -10q6 -6 -1 -16q-10 -14 -20.5 -28t-19.5 -28q-14 -21 -24 -42q-7 -9 -5 -24q5 1 8.5 0.5t8.5 1.5q16 5 30.5 13.5t28.5 19.5q18 14 36 29l36 30q4 2 7 5t8 6q8 6 17 2q3 -5 2 -11t-2 -11q-15 -83 -36 -165q-7 -28 -13.5 -55t-12.5 -55q-3 -14 -5.5 -27.5
t-6.5 -27.5q0 -3 -0.5 -6.5t-0.5 -6.5h4z" />
    <glyph glyph-name="L" unicode="L" horiz-adv-x="626" 
d="M539 46q5 3 8 2q15 -3 21 -15.5t-1 -27.5q-9 -26 -31 -45q-27 -22 -59 -30q-54 -14 -101 -2q-17 4 -33.5 8t-33.5 9q-33 11 -66.5 15t-69.5 4q-26 -1 -50 -8t-47 -22q-2 -2 -3.5 -2.5t-3.5 -1.5q-2 -2 -5.5 -3.5t-5.5 2.5q-2 3 -1 6.5t3 6.5q5 5 9.5 10.5t9.5 10.5
q11 10 22 18.5t23 16.5q4 4 9.5 7t11.5 7q0 4 1.5 8t1.5 9q6 41 12 81t14 81q6 31 11 58.5t11 54.5t13 54t16 59q8 32 16.5 65t17.5 66l2 9q-5 -2 -7 -2t-4 -2q-16 -8 -32 -13l-32 -10q-27 -6 -49 0q-33 11 -31 46q0 12 3.5 24t8.5 24q24 46 65 81q16 14 33 8q13 -4 24 -9
t20 -16q-4 -7 -9.5 -11.5t-10.5 -9.5q-16 -16 -29.5 -33t-26.5 -35q-3 -6 -7 -12.5t-7 -13.5q-8 -23 14 -17q8 2 17.5 4.5t17.5 6.5q41 19 75 44q10 7 25 14t25 13l9 7q15 7 18 -9q0 -5 -0.5 -9t-1.5 -9q-3 -11 -5.5 -21t-6.5 -21q-12 -42 -23 -84.5t-20 -86.5
q-10 -45 -20.5 -88.5t-19.5 -88.5q-6 -25 -10 -45.5l-8 -41t-7 -41t-6 -45.5q0 -11 -1 -16l6 -3q23 -1 39.5 -5t35.5 -11q20 -8 41.5 -15.5t41.5 -15.5q14 -5 27 -8l26 -6q10 -1 20 0.5t21 3.5q8 2 14.5 6.5t13.5 10.5q11 11 14 23q2 6 0.5 12t-3.5 11q-1 0 0 4z" />
    <glyph glyph-name="M" unicode="M" horiz-adv-x="818" 
d="M388 544q-1 -8 -2 -12.5t-2 -8.5q-23 -142 -45 -273.5t-45 -263.5q-2 -7 -3.5 -13.5t-2.5 -13.5q-4 -14 -20 -24q-18 -12 -41 -15q-2 7 -1 13t3 12q11 47 19 92.5t16 92.5q5 31 11 61t11 62l37 221q4 17 8 33.5t7 33.5q3 20 6.5 39.5t7.5 39.5q0 1 -1 1.5t-1 2.5
q-3 2 -5.5 -1t-4.5 -5q-16 -11 -31 -23t-32 -23q-12 -9 -25.5 -16.5t-26.5 -14.5q-40 -19 -77 -7q-41 14 -38 57q3 34 23 68q8 12 16.5 24t19.5 23q4 4 8.5 7.5t10.5 3.5l67 5q4 0 8 -2q0 -7 -2.5 -11t-6.5 -8q-34 -44 -60 -92q-9 -14 -12 -27q-5 -13 1 -18.5t19 -0.5
q10 2 20 6t19 9q15 10 30 19.5t29 20.5q24 20 47 39.5t45 39.5q18 15 36 10q32 -6 35 -36q2 -22 4.5 -42.5t3.5 -42.5q2 -64 5 -127t8 -126q4 -42 8.5 -87.5t7.5 -87.5l3 -25q45 139 103 274t115 271q5 11 10 20.5t13 17.5q5 3 10 2t9 -3q24 -16 38 -45q2 -3 2.5 -7t0.5 -9
q-2 -20 -3 -39t-4 -39l-40 -262l-30 -185q-5 -32 -11 -64l-12 -64v-5q-6 -38 -43 -53q-11 -6 -22.5 -10t-23.5 -9q-4 -1 -8.5 -0.5t-9.5 0.5q5 32 12.5 63.5t13.5 63.5q12 63 27 126q5 31 11.5 62t11.5 62q6 32 11 63t11 63q5 32 10 62.5t11 62.5q-6 -1 -7 -4t-3 -6
l-49 -119l-75 -204q-15 -45 -30 -89t-29 -89q-5 -15 -8.5 -30t-7.5 -29q-4 -16 -19 -20q-12 -4 -24 -6.5t-24 -2.5q-17 1 -20 16q-2 17 -4 34.5t-3 35.5l-12 202q-2 31 -4 68.5t-3 76.5t-2 77t-1 70q0 2 -0.5 4t-2.5 7z" />
    <glyph glyph-name="N" unicode="N" horiz-adv-x="596" 
d="M328 448q-33 -144 -47 -274t-25 -240q1 -2 -3 -8q-28 -3 -49 5q-7 2 -7 9q-2 4 -1.5 7.5t1.5 7.5l12 107q5 35 9.5 71.5t11.5 72.5q8 40 14.5 78.5t16.5 78.5q8 41 16.5 82.5t16.5 82.5q2 11 5.5 21.5t5.5 20.5l3 16q-7 0 -12 -2q-17 -10 -35 -18t-38 -14q-29 -6 -55 -5
q-23 4 -40 17t-16 39q2 32 18.5 60t44.5 53q6 8 15 9q22 5 43.5 6.5t43.5 2.5q2 0 4 -0.5t5 -0.5l-6 -12q-15 -17 -30.5 -35.5t-29.5 -35.5q-8 -9 -13.5 -18.5t-10.5 -19.5q-2 -5 -2.5 -11.5t-1.5 -12.5q0 -11 17 -9q8 2 15.5 4t14.5 4q17 10 34 19.5t35 21.5q14 7 27 15
t27 18q7 2 14 5.5t12 5.5q21 5 24 -10q2 -9 4 -16.5t4 -15.5q0 -29 1.5 -56.5t3.5 -55.5q2 -18 2 -35.5v-34.5q7 -85 18 -166.5t35 -157.5q11 52 19 96.5t14.5 85t13.5 78t15 74.5q9 42 16.5 82.5t11.5 82.5q1 8 1.5 15.5t-0.5 15.5q1 5 3 8.5t8 7.5q7 5 14.5 9.5t15.5 8.5
q6 4 10.5 2t5.5 -6q0 -8 1 -15t-1 -14q-1 -15 -2.5 -29.5t-4.5 -29.5q-2 -14 -4.5 -29t-6.5 -29q-5 -31 -12 -62t-13 -63q-5 -26 -11 -52t-12 -53q-5 -26 -11 -54t-11 -55q-8 -32 -14 -64t-14 -66q-5 -24 -9 -49.5t-8 -51.5q-2 -7 -3.5 -15t-6.5 -17q-5 -1 -9.5 -1.5
t-8.5 -0.5q-10 -1 -19 -0.5t-18 -0.5q-19 -1 -23 11q-1 8 -3 15t-3 15l-39 257q-6 49 -15.5 96t-16.5 97q-1 5 -1.5 10t-0.5 14z" />
    <glyph glyph-name="O" unicode="O" horiz-adv-x="494" 
d="M478 364q-2 -8 -4 -15t-4 -15q-8 -48 -24.5 -94t-36.5 -93q-19 -43 -43 -83t-58 -76q-12 -14 -24.5 -25t-28.5 -20q-72 -43 -129 -1q-48 37 -66 100q-11 38 -14 76.5t-1 79.5q3 43 12.5 85.5t22.5 84.5q11 29 25 58t32 55q9 13 19 24t21 23q11 13 15 27q10 25 22 49
t29 46q24 35 62 58q35 21 72 20t63 -28q16 -17 25.5 -36t14.5 -42q15 -63 14 -127t-16 -131zM172 468q-38 -60 -60 -123t-27.5 -125t7 -120t42.5 -106q12 -15 33 -23.5t41 4.5q22 13 39 35q42 52 67 113q19 41 34 82.5t27 83.5q22 73 29 138q4 54 6 107q0 72 -30 132
q-5 10 -14 21q-15 13 -32.5 6t-32.5 -20q-53 -59 -68.5 -125t-5.5 -123q2 -14 5 -26.5t10 -24.5q21 -34 65 -22l12 3q2 -2 2 -4t1 -4q-1 -4 -1 -7t-2 -7q-9 -23 -23.5 -40.5t-37.5 -29.5q-13 -6 -24 -1q-20 8 -33 22q-28 31 -34 74q-5 30 1 62z" />
    <glyph glyph-name="P" unicode="P" horiz-adv-x="474" 
d="M454 662q-10 -6 -27 -14.5l-35 -17.5t-34.5 -17t-25.5 -13q-20 -11 -41 -20.5t-44 -15.5q-36 -11 -73 -6t-52 31t-1 61q5 13 11.5 25t13.5 24q5 13 18 17q17 5 33.5 8.5t33.5 3.5q2 0 3 -1t3 -2q-3 -8 -7 -15t-9 -15q-20 -34 -26 -70q-2 -5 -2 -10v-10q3 -20 22 -17
q33 6 68 20t70 32t67.5 38.5t61.5 39.5q7 6 13 8t22 -12q28 -24 39 -59.5t8 -73.5q-5 -63 -29.5 -122t-72.5 -108q-19 -21 -45 -41t-55 -36t-58 -27.5t-54 -16.5q-3 -6 -3 -13q-4 -21 -9 -48t-9.5 -55t-7.5 -55t-4 -49q0 -12 -10 -18q-16 -9 -27.5 -18.5t-28.5 -17.5
q-13 -6 -21 -1t-7 17q1 8 1 17t2 17q3 18 7 43t8.5 51t9 51t7.5 43q1 5 1.5 10t0.5 11l-32 5l-10 4l-10 4q-4 2 -5.5 2t1.5 5q2 6 10 8q9 2 17.5 3t16.5 3l20 3q2 5 3.5 8.5t2.5 7.5l16 86l18 106q2 14 3 28.5t3 29.5l2 14q22 11 41.5 19t40.5 16q3 1 8 1q7 0 6 -7
q1 -4 0 -8.5t-3 -8.5q-9 -29 -15.5 -56.5t-12.5 -56.5q-3 -15 -6 -33t-6.5 -37t-6.5 -37t-5 -33q-1 -5 -1.5 -9.5t-0.5 -10.5q39 5 74 27t62.5 54.5t46.5 73t28 82.5t6.5 82t-18.5 72z" />
    <glyph glyph-name="Q" unicode="Q" horiz-adv-x="493" 
d="M478 626q28 -125 -3 -258l-7 -30q-8 -43 -21.5 -90t-34 -92.5t-47 -87.5t-59.5 -75q-1 -59 35 -82.5t97 -18.5q2 -1 -2 -11q-2 -4 -5 -9q-92 -18 -136.5 1.5t-53.5 68.5q-36 -21 -62 -18.5t-55 22.5q-49 37 -66 100q-11 38 -14 76.5t-1 79.5q3 43 12 85.5t23 84.5
q11 29 25 58t32 55q9 13 18.5 24t20.5 23q12 12 16 27q10 25 22 49t29 46q26 36 62 58q35 21 72 20t63 -28q16 -17 25.5 -36t14.5 -42zM373 293q10 35 17.5 69.5t10.5 68.5q6 54 6 107q1 71 -29 132q-3 6 -7 11l-8 10q-14 13 -31.5 6t-32.5 -20q-53 -59 -68.5 -125
t-5.5 -123q2 -14 5 -26.5t10 -24.5q20 -34 64 -22l13 3l2 -8q0 -9 -2 -14q-19 -47 -61 -70q-13 -6 -25 -1q-18 7 -33 22q-28 33 -34 74q-2 14 -2 29.5t3 32.5l5 48q-38 -60 -60 -123t-27.5 -125t7 -120t42.5 -106q27 -32 48.5 -30.5t53.5 33.5q-2 32 -9 51.5t-14 30.5
q-9 12 -18 18q-4 4 -4 7q0 2 3.5 4t15.5 1q28 -4 45 -16.5t28 -31.5q8 15 16 30.5t15 31.5q18 41 33 82.5t28 83.5z" />
    <glyph glyph-name="R" unicode="R" horiz-adv-x="487" 
d="M393 670q-29 -20 -58.5 -38.5t-58.5 -34.5q-38 -19 -75 -26q-31 -5 -56 2q-35 9 -32 45q2 18 9.5 35.5t17.5 34.5q2 3 5 6.5t7 5.5q17 8 33.5 15t35.5 9q0 -3 0.5 -6.5t-1.5 -5.5q-2 -6 -5.5 -12t-6.5 -12q-15 -24 -22 -55q0 -2 -0.5 -3.5t-0.5 -3.5q-2 -18 4.5 -23.5
t26.5 -0.5q59 20 109.5 57.5t97.5 71.5q26 -8 45 -21.5t35 -32.5q20 -26 25.5 -56t1.5 -64q-5 -42 -22.5 -81.5t-43.5 -76.5q-13 -17 -27.5 -33t-29.5 -30q-38 -36 -79 -59l-16 -9q0 -5 2.5 -5t4.5 -1q25 -7 46 -21q27 -18 33 -50q4 -16 4.5 -31.5t-1.5 -32.5l-9 -87
q-2 -16 -4 -35t3 -33q5 -10 13.5 -13.5t19 -2.5t21.5 3.5t20 4.5q-1 -11 -4 -16.5t-14 -10.5q-11 -6 -23 -8.5t-23 -4.5q-5 -1 -9.5 -0.5t-9.5 -0.5q-55 0 -75 48q-8 20 -9 41t1 43q2 20 3.5 39.5t0.5 39.5q0 12 -2 24.5t-4 24.5q-3 18 -15 28t-29 15q-4 2 -8 2.5t-9 1.5
h-18l-3.5 -7t-1.5 -6q-8 -47 -16.5 -102.5t-10.5 -102.5q0 -5 -1 -10t-1 -10q-9 -8 -19 -13t-21 -7q-15 -3 -24.5 3.5t-9.5 20.5v11.5t2 11.5q3 19 6.5 41.5l7 45t6.5 45t6 41.5q2 5 2 11t2 13h-20q-5 1 -9 1t-9 2q-8 2 -7 10q1 5 11 7l37 5q2 5 3 8.5t2 7.5q9 53 18.5 105
t19.5 105q3 18 7 36l8 36q3 15 16 20q15 6 29.5 12.5t30.5 10.5q4 -4 4 -8.5t-2 -8.5q-5 -30 -11 -60l-12 -60q-5 -22 -10 -43.5t-10 -44.5q-3 -17 -6.5 -33.5t-7.5 -33.5q-2 -6 -2 -11.5t-2 -12.5q34 4 68 23t63.5 48t51 65t29.5 75q11 50 11 97q-1 31 -15 53.5t-35 42.5z
" />
    <glyph glyph-name="S" unicode="S" horiz-adv-x="421" 
d="M496 620q-1 -4 -1 -7t-2 -7q-10 -22 -22 -46t-26 -44q-4 -7 -9.5 -13t-11.5 -11q-26 -17 -49.5 -18.5t-42 8.5t-31.5 29t-16 43q-5 32 2.5 63t21.5 62l9 17q-3 4 -11 1q-29 -11 -50 -32q-51 -48 -72 -115q-2 -8 -3 -15t-2 -15q-1 -30 3.5 -57.5t16.5 -52.5
q17 -37 37 -70.5t42 -66.5q13 -20 23 -40t15 -43q23 -95 -27 -187q-44 -83 -129 -96q-55 -9 -93 21q-22 17 -30.5 41.5t-6.5 54.5q2 36 21 67q11 17 25 29t33 16q17 3 27 -8q1 -1 0.5 -2.5t0.5 -3.5q-4 -4 -8 -4q-12 4 -22 -3t-18 -18q-18 -20 -23 -44t-0.5 -45t18.5 -37.5
t35 -21.5q22 -8 44 -3t40.5 17.5t31 32t15.5 42.5q3 11 2 21.5t-3 21.5q-5 23 -15 42t-23 36q-44 56 -70.5 109t-44.5 118q-12 69 3.5 130t66.5 122q29 34 65 57.5t78 31.5q4 1 8 1h9q15 -1 18 -6t-5 -21q-9 -20 -15 -41t-7 -43q0 -39 31 -52q34 -13 67 4q17 8 32 18.5
t29 23.5l8 6t11 3z" />
    <glyph glyph-name="T" unicode="T" horiz-adv-x="454" 
d="M654 744q7 -3 14 -7t12 -12q-35 -31 -73.5 -55t-78.5 -42.5t-79 -33.5t-75 -28q0 -8 4.5 -11l7.5 -5q13 -8 17.5 -18.5t-3.5 -27.5q-9 -45 -17.5 -88t-16.5 -87l-40 -203q-8 -36 -11 -72t-5 -74q0 -1 2 -3q3 -2 6 -0.5l5 2.5q7 4 12.5 9t14.5 7q0 -18 -12 -30l-20 -16
t-21 -15q-25 -19 -48 -1q-21 15 -24 40q-1 9 -0.5 17.5t1.5 17.5q2 48 8.5 96t17.5 96q8 42 17.5 83.5t18.5 84.5q8 38 15.5 74.5t15.5 73.5l4 16t0 17q-8 -3 -16 -5t-15 -5q-37 -13 -79 -16q-43 -3 -74 18q-20 14 -26.5 41.5t12.5 59.5q17 25 38 42.5t47 27.5q11 3 18.5 3
t12.5 -7q9 -8 16.5 -15t15.5 -15q3 -2 5 -9q-7 -8 -14 -12l-14 -8q-25 -15 -43 -34q-7 -8 -12.5 -17.5t-7.5 -20.5q-5 -17 12 -19q7 1 13.5 1.5t14.5 2.5q53 12 109 28.5t111.5 39t108 51t98.5 63.5z" />
    <glyph glyph-name="U" unicode="U" horiz-adv-x="559" 
d="M258 603l-15 -7q-14 -4 -27 -9t-25 -10q-11 -4 -21.5 -4.5t-20.5 1.5q-45 8 -32 54q4 16 11.5 30t16.5 28q5 5 8 9.5t7 9.5q9 12 20.5 19t26.5 6q6 0 12.5 1.5t12.5 0.5q2 1 4.5 0t5.5 -1q-1 -8 -5 -13t-7 -10l-37 -56q-3 -5 -5 -10.5t-4 -12.5q-3 -8 -2 -15
q0 -18 17 -10q16 6 31.5 12.5t30.5 17.5q13 8 26 17l26 18q8 5 14.5 9.5t14.5 6.5q5 -3 7 -8.5t2 -10.5q0 -8 -1 -16.5t-2 -16.5q-12 -64 -24.5 -128t-23.5 -128q-5 -28 -8 -55t-7 -55l-12 -84q-7 -36 -8.5 -72t3.5 -72q2 -10 5 -19.5t7 -18.5q1 -4 3.5 -7.5t5.5 -7.5
q16 -16 39 -3q41 36 66.5 89t41.5 112.5t26 121.5t20 116q8 63 19.5 123.5t16.5 122.5q1 7 2.5 14t1.5 15q16 5 31.5 9t29.5 6q11 1 11 -12q1 -9 0 -18.5t-2 -18.5q-3 -36 -8.5 -72t-13.5 -73q-9 -45 -18 -89.5t-20 -89.5q-16 -72 -39 -145q-11 -33 -24.5 -66t-30.5 -63
q-34 -59 -88 -104q-13 -10 -30.5 -16.5t-35.5 -7.5t-35.5 4t-30.5 17q-24 23 -34 52q-6 24 -8 47.5t0 47.5q2 45 7 89t12 89q8 42 15.5 83.5t15.5 83.5q7 35 15 71l16 72q2 2 1.5 4t-0.5 6z" />
    <glyph glyph-name="V" unicode="V" horiz-adv-x="535" 
d="M249 609q-8 1 -13 -3t-11 -6l-42 -16q-12 -3 -24 -3q-31 -1 -39 27q-7 22 0 39q6 18 15.5 34t21.5 32q7 7 15 12q29 12 60 13l4 -2l-9 -19q-10 -19 -20.5 -38t-20.5 -39q-3 -5 -4 -10.5t-3 -11.5q-2 -5 2.5 -8t9.5 -1t9.5 3.5t8.5 3.5q17 8 33 18t32 21l34 25
q32 20 33 -13q0 -8 -0.5 -16.5t-1.5 -16.5l-21 -191q-3 -25 -6.5 -49.5t-5.5 -49.5l-14 -178q-3 -32 -3 -62.5t2 -61.5l2 -24t3 -24l5 -9q24 22 49.5 74t49.5 119.5t45 141.5t37 140.5t26.5 116.5t12.5 69q2 8 3.5 16.5t3.5 17.5q4 15 19 14q29 -3 49 -24q9 -9 7 -21
q-2 -9 -3 -18t-3 -18q-8 -31 -16.5 -61t-17.5 -60q-9 -31 -18 -61t-20 -60q-14 -38 -28.5 -76.5t-28.5 -76.5l-23 -55q-17 -40 -36 -78.5t-43 -75.5q-9 -14 -20 -27.5t-22 -27.5q-4 -5 -8.5 -9t-9.5 -8q-23 -19 -37 -2q-16 18 -26 36q-25 57 -27 121q-3 59 -2 117t5 117
q3 62 10.5 123.5t16.5 124.5q2 9 2 17.5t1 17.5z" />
    <glyph glyph-name="W" unicode="W" horiz-adv-x="605" 
d="M249 -7q8 1 11 5t6 9q16 25 28.5 51t23.5 52l24 65q3 8 5 16.5t4 16.5l41 208l3 10q3 13 16 12l47 -8q0 -5 0.5 -8.5t-0.5 -8.5l-6 -34t-7 -34q-3 -17 -7 -42t-7.5 -51t-6.5 -50.5t-4 -41.5q-3 -29 -5 -56.5t-3 -54.5q-1 -11 0.5 -22.5t2.5 -22.5q0 -7 4 -15q2 -5 5.5 -5
t5.5 4q31 45 52.5 98.5t35 109t20 109.5t6.5 101q2 42 2 91t-4 90q-3 22 -7.5 42.5t-9.5 41.5l-4 18q28 26 63 40q15 7 21 -9q4 -8 6 -21q11 -59 6 -121q-2 -49 -7.5 -105t-12.5 -105q-21 -150 -86 -290q-13 -29 -28 -55.5t-35 -51.5l-11 -11q-8 -11 -18 -18t-24 -6
q-15 0 -27 5t-19 19q-3 6 -5.5 12.5t-3.5 13.5l-5 52q0 7 -0.5 13.5t-1.5 15.5q-3 -5 -5.5 -8.5t-3.5 -6.5q-9 -14 -17.5 -29t-17.5 -29q-6 -10 -13 -18.5t-15 -15.5q-17 -17 -34 -19t-31 12q-20 20 -26 48q-18 60 -12 125q3 48 10 94t18 94q9 39 22.5 86.5t27.5 86.5
q10 23 16.5 46.5t14.5 48.5l-13 -4q-14 -8 -28 -15t-29 -14q-31 -16 -59 -3q-35 14 -20 52q23 63 76 104q4 3 9 5.5t9 2.5q14 1 29 0.5t30 -0.5q1 0 7 -2q-1 -5 -6 -11q-6 -8 -12 -16.5t-13 -16.5q-8 -11 -16.5 -22t-15.5 -22q-10 -15 -16 -29q-3 -6 0 -9.5t9 -1.5l14 7
q14 6 28 14.5t27 18.5q18 14 37 29t36 29q5 3 9.5 7t9.5 6q15 5 15 -10l-4 -16q-5 -15 -8.5 -30.5t-9.5 -29.5q-19 -60 -38 -117.5t-35.5 -114.5t-28.5 -115.5t-17 -120.5q-3 -16 -4.5 -36.5t-1.5 -40.5t2.5 -38t9.5 -29z" />
    <glyph glyph-name="X" unicode="X" horiz-adv-x="554" 
d="M394 415l10 11q32 41 64 81t65 80q25 30 52.5 58.5t56.5 54.5q9 8 18.5 15t20.5 14q4 2 8.5 3.5t9.5 3.5q-1 -4 -0.5 -6.5t-1.5 -4.5q-17 -20 -33 -38.5t-33 -37.5q-20 -23 -40 -45.5t-39 -46.5q-35 -45 -69 -89.5t-66 -91.5q-10 -14 -14.5 -20t-6 -11t-1 -11.5
t2.5 -20.5q2 -26 6.5 -58t10.5 -65.5t13 -65t14 -55.5q12 -42 38 -78l10 -14q-18 -35 -53 -51q-24 -12 -38 5q-15 18 -22 35q-26 63 -37 129t-19 132q-9 -9 -12 -13q-14 -23 -29.5 -47t-29.5 -48l-103 -179q-6 -11 -13 -17q-6 -5 -13 -3.5t-8 7.5q-1 5 -1 11t2 11
q3 14 11 29q19 41 40.5 80t45.5 77l91 143q7 11 9 20.5t1 20.5q-2 25 -4.5 50t-5.5 50q-3 34 -3.5 68t0.5 69q-1 15 -0.5 30t-0.5 30q0 4 -0.5 7.5t-1.5 8.5q-5 -2 -8.5 -4.5t-8.5 -4.5l-58 -33q-35 -17 -67 -16q-11 0 -21 5q-16 6 -16 23q-2 14 1.5 26.5t9.5 24.5
q10 19 24 40q11 18 34 28q8 3 15.5 6t15.5 5q3 1 6.5 0.5t8.5 -0.5q-2 -4 -3 -7.5t-3 -6.5q-5 -9 -10.5 -18.5t-10.5 -18.5q-9 -14 -15 -29t-11 -30q-2 -4 -2 -7t-1 -7q-1 -6 3 -8.5t10 -0.5q8 3 16.5 6.5t16.5 8.5l62 37q15 9 30.5 17t32.5 16q5 2 10 3.5t10 3.5q9 2 11 -6
q2 -10 2 -17l3 -117q1 -32 3 -64l4 -64q0 -3 4 -8z" />
    <glyph glyph-name="Y" unicode="Y" horiz-adv-x="597" 
d="M309 -113l-3 8q-3 8 -5 15t-6 13q-8 12 -22 7t-27 -17.5t-23 -27.5t-11 -23q-9 -19 -10.5 -44t7 -42.5t27.5 -21.5t52 18q32 26 49.5 62t32.5 81q12 38 20 75t16 73q-4 2 -6.5 0t-4.5 -4q-26 -21 -53.5 -26.5t-54.5 -3.5q-35 4 -51 33q-3 8 -6.5 16.5t-5.5 18.5
q-10 29 -12.5 59.5t-0.5 62.5q2 35 5 69t8 69q8 45 19.5 88t26.5 86q6 17 12.5 32.5t13.5 32.5q0 2 0.5 4.5t1.5 6.5q-5 -3 -8.5 -5t-5.5 -4q-14 -9 -28 -18.5t-31 -18.5q-10 -6 -21 -11l-22 -10q-21 -8 -41 -5q-31 4 -34 37q0 5 0.5 9t2.5 9q5 29 18.5 56t33.5 52
q14 17 32 26t38 12q7 1 9.5 -3t-1.5 -11q-5 -12 -12 -24l-14 -24q-10 -18 -18 -36t-12 -38l-3 -21q5 -5 9 -3t9 4q20 11 39 22.5t36 25.5q13 10 25 20l24 20q17 13 24.5 14t21.5 -10q6 -4 11 -9t11 -10q5 -6 2 -16q-10 -26 -18.5 -51t-17.5 -49q-14 -39 -24 -77.5t-15 -77.5
q-6 -38 -12.5 -76.5t-9.5 -76.5q-2 -24 -4 -48.5t0 -47.5q2 -26 10 -49q8 -20 29 -17q30 2 50.5 21t37.5 42q5 8 9 20t6.5 23.5t4 21t2.5 14.5l45 217q5 30 12 60.5t13.5 59t10.5 54t2 46.5q1 9 11.5 16t25.5 12.5t30.5 9.5t26.5 7q2 -3 3.5 -6t0.5 -6q0 -11 0.5 -21
t-0.5 -21q-5 -34 -9.5 -68t-11.5 -69q-29 -131 -56.5 -257.5t-65.5 -252.5q-16 -44 -35.5 -85t-45 -76t-58 -62.5t-73.5 -44.5q-30 -15 -54 -7.5t-38 28.5t-16.5 52t10.5 63q8 23 20 44t30 40q26 25 56 29q22 5 35.5 -6t15.5 -31q0 -22 -13 -46h-1q-1 0 -1.5 -0.5t-1.5 -0.5
z" />
    <glyph glyph-name="Z" unicode="Z" horiz-adv-x="514" 
d="M216 603q5 -5 10.5 -4.5t12.5 2.5q31 4 67 20q29 13 59 26t59 27l40 18t38 18q11 5 17.5 7.5t11.5 1t10 -7t12 -15.5q4 -9 5.5 -9t6.5 -9q9 -19 -4 -38q-16 -21 -28.5 -42t-26.5 -42q-99 -138 -192 -271.5t-187 -258.5l-28 -45q9 -3 27.5 -5.5t41.5 -3t48.5 1.5t48.5 7.5
t41.5 16t26.5 27.5q16 24 28 50.5t17 56.5q0 4 2 6q0 1 3 6q7 2 8 2q13 -2 25.5 -3.5t24.5 -4.5q10 -2 12.5 -8.5t-0.5 -20.5q-2 -10 -4.5 -19.5t-5.5 -18.5q-16 -41 -41 -69.5t-61 -43.5q-44 -12 -82.5 -16t-75.5 -3.5t-75 5.5t-81 12q-11 2 -15 5q-12 7 -8 20
q2 6 4.5 12.5t5.5 12.5q3 7 7 13.5t8 12.5q33 53 73 105t75 103q81 106 156 214t153 209q-32 -18 -69 -33.5t-68 -28.5q-29 -14 -57 -21.5t-57 -12.5q-23 -3 -45 2q-8 1 -13 5q-17 7 -24 24t-3 39q4 20 12 37.5t19 33.5q9 14 19 27t21 26q15 17 32 13q20 -4 45 -6
q13 -2 4 -14q-4 -5 -7 -10.5t-7 -10.5q-12 -16 -22.5 -30.5t-19.5 -29.5q-9 -13 -15.5 -25.5t-11.5 -25.5q-2 -5 -3.5 -9.5t0.5 -9.5z" />
    <glyph glyph-name="A" unicode="A" horiz-adv-x="517" 
d="M340 201q-35 2 -70 -1t-72 -11l-15 -32q-20 -46 -40 -91.5t-40 -93.5l-5 -10q-4 -4 -8 -6q-14 -5 -24 2q-7 1 -5 11l3 8l83 180q3 9 8 20q-7 2 -12.5 0t-10.5 -3q-14 -3 -28.5 -5t-28.5 -1q-7 0 -12.5 1t-11.5 3q-20 8 -12 30q7 13 17 26q4 5 10 10.5t11 10.5
q14 14 30.5 17t33.5 1q0 -5 -3.5 -7t-5.5 -4q-14 -12 -27 -23.5t-25 -22.5q-4 -3 -6 -7.5t-4 -8.5t0.5 -7t8.5 -2l22 5l70 25q49 106 98 210t100 211q-37 -12 -71 -24t-69 -12q-36 3 -47 20.5t-6 40t23 44t41 32.5q12 0 23.5 -1.5t20.5 -7.5q-24 -22 -43.5 -40t-21.5 -43
q-2 -12 6 -18t20 -3q38 7 74.5 24t71.5 31q8 4 16 6.5t15 4.5q23 7 30 -11q3 -11 3 -24q1 -29 -1.5 -57t-5.5 -55.5t-5.5 -54t-3.5 -52.5q1 -2 0.5 -4t-0.5 -4l-10 -146l-7 -140l-7 -151q0 -15 -13.5 -24.5t-29.5 -11.5t-30.5 2.5t-15.5 16.5q2 20 2 41t2 41zM344 246
q4 75 9 148t9 151l-7 -14q-34 -72 -67 -144.5t-66 -144.5q-1 -2 -1 -5t-2 -7l41 7l42 6z" />
    <glyph glyph-name="a" unicode="a" horiz-adv-x="335" 
d="M143 29q-35 -33 -65 -39t-51 5.5t-32.5 37t-9.5 56.5q2 53 13.5 114t39.5 112q21 39 57 66t77 42q36 13 61.5 2t34.5 -31.5t0 -41.5t-40 -27q-14 6 -19 21q-3 6 -5 12.5t-4 12.5q-6 12 -23 15.5t-31 -13.5q-23 -29 -38.5 -61.5t-25 -66t-13 -67t-3.5 -63.5q0 -21 6 -40
q4 -14 10 -22q6 -10 13 -11t20 6l12 9q9 5 12.5 11.5t5.5 15.5q8 45 18 91t25 91q7 14 16 27t27 16q19 3 25 -13q5 -16 2 -38q-3 -17 -6.5 -33t-7.5 -33l-27 -124v-14q2 2 4 2t3 1q21 13 43.5 34t43 45t38 50t29.5 49q2 4 5.5 8t7 6t6 1t3.5 -8q-1 -5 -1 -8.5t-2 -8.5
q-5 -24 -26 -57.5t-48.5 -65.5t-56 -57.5t-46.5 -34.5q-14 -14 -37 -14q-20 0 -31 15z" />
    <glyph glyph-name="b" unicode="b" horiz-adv-x="305" 
d="M121 386l22 12q33 17 61.5 7.5t37.5 -39.5q5 -14 7 -28.5t4 -29.5q4 -71 -17 -147l-3 -13q7 1 26.5 13t40.5 27.5t38 29.5t20 20q4 5 7 10.5t12 8.5q11 -8 6 -24q-7 -18 -27.5 -38.5t-46 -40.5t-51.5 -37.5t-42 -28.5q-4 -2 -6 -6l-4 -8q-6 -9 -10.5 -18.5t-9.5 -17.5
q-23 -39 -68 -61q-25 -12 -52 -1q-2 2 -5 4t-4 5q-9 17 -8.5 39t24.5 39q8 7 17 11.5t18 8.5q7 3 13.5 5t14.5 5q4 4 6 9q14 42 26.5 82.5t18.5 82.5q2 14 2.5 28.5t2.5 28.5q0 5 -1 9.5t-3 9.5q-4 22 -17 22.5t-30 -13.5t-27 -30.5t-16 -34.5q-5 -16 -8 -31.5t-7 -31.5
l-19 -99l-20 -90q-5 -23 -19 -42q-10 -13 -23 -15t-22 8q-3 4 -5.5 9.5t-1.5 10.5q-1 11 -1 21.5t2 21.5l30 157q5 26 10.5 52t10.5 52q9 42 15.5 73t12.5 59.5t11.5 59.5t13.5 73q3 17 8.5 33t10.5 33q2 5 3 8.5t5 8.5q13 24 40 21q24 -2 24 -26q0 -12 -1 -24t-3 -24
q-3 -15 -5 -24.5t-4 -17.5t-4 -17t-5 -24q-4 -19 -7 -32.5t-5 -25.5t-4.5 -25t-6.5 -32zM123 54q-13 -2 -23 -6.5t-19 -10.5l-4 -4q-5 -6 -4.5 -13.5t6.5 -11.5q4 -3 10 -1.5t11 6.5q15 15 23 41z" />
    </font>
</defs>
</svg>
